<?xml version="1.0" standalone="no"?>
<!DOCTYPE svg PUBLIC "-//W3C//DTD SVG 20010904//EN"
 "http://www.w3.org/TR/2001/REC-SVG-20010904/DTD/svg10.dtd">
<svg version="1.0" xmlns="http://www.w3.org/2000/svg"
 width="816.000000pt" height="1280.000000pt" viewBox="0 0 816.000000 1280.000000"
 preserveAspectRatio="xMidYMid meet">
<metadata>
Created by potrace 1.15, written by Peter Selinger 2001-2017
</metadata>
<g transform="translate(0.000000,1280.000000) scale(0.100000,-0.100000)"
fill="#000000" stroke="none">
<path d="M2903 12786 c-321 -61 -584 -266 -703 -545 -62 -145 -75 -212 -74
-381 0 -139 3 -164 27 -243 51 -165 133 -301 249 -413 371 -360 971 -356 1334
10 165 167 258 378 271 616 22 431 -279 828 -715 941 -101 26 -291 33 -389 15z"/>
<path d="M5945 11615 c-47 -15 -463 -141 -825 -250 -140 -43 -258 -79 -261
-81 -3 -2 45 -178 107 -391 259 -895 474 -1642 474 -1649 0 -4 -145 247 -322
557 l-323 564 -370 252 c-203 138 -376 252 -383 252 -6 1 -321 -205 -700 -458
l-687 -458 -335 -968 c-184 -532 -339 -973 -345 -980 -5 -7 -446 -281 -980
-610 -533 -329 -975 -603 -981 -609 -9 -8 48 -109 218 -388 l230 -376 111 72
c62 39 129 82 149 95 l37 22 827 -1653 826 -1653 -257 -1313 c-141 -723 -255
-1315 -253 -1317 4 -4 1001 -154 1047 -157 l33 -3 122 459 122 458 310 -513
310 -514 179 0 179 0 54 146 53 147 -420 882 -421 883 95 490 95 489 507 517
c860 875 897 911 904 904 3 -5 95 -258 203 -563 l197 -555 881 -1640 c485
-902 882 -1642 884 -1644 10 -11 919 397 918 412 -1 6 -94 262 -207 567 -113
305 -291 789 -397 1075 -105 286 -238 646 -295 800 -57 154 -273 739 -480
1300 l-376 1019 -15 686 -15 685 -108 655 c-73 447 -104 657 -97 661 6 4 169
52 361 109 488 142 545 160 545 170 0 8 -994 3251 -1036 3383 -17 51 -23 53
-89 32z m-2365 -4245 c222 -344 410 -635 418 -647 9 -15 19 -83 28 -198 l14
-176 -579 -1007 c-406 -707 -620 -1090 -717 -1284 -76 -153 -141 -278 -144
-277 -4 0 -1340 2673 -1347 2697 -2 4 106 46 240 94 133 48 430 155 660 238
230 82 426 154 436 160 10 5 123 199 251 432 299 541 331 600 335 596 1 -2
184 -284 405 -628z"/>
</g>
</svg>
